<mxfile host="app.diagrams.net" modified="2024-07-30T04:06:41.018Z" agent="Mozilla/5.0 (X11; Linux x86_64) AppleWebKit/537.36 (KHTML, like Gecko) Chrome/127.0.0.0 Safari/537.36" etag="CD6dUtb4epF7SbkDSrri" version="24.7.1" type="github">
  <diagram name="Page-1" id="9f46799a-70d6-7492-0946-bef42562c5a5">
    <mxGraphModel dx="1400" dy="751" grid="1" gridSize="10" guides="1" tooltips="1" connect="1" arrows="1" fold="1" page="1" pageScale="1" pageWidth="1100" pageHeight="850" background="none" math="0" shadow="0">
      <root>
        <mxCell id="0" />
        <mxCell id="1" parent="0" />
        <mxCell id="7XEHqxripD5ANdKgzwC3-1" value="Productos" style="swimlane;whiteSpace=wrap;html=1;" vertex="1" parent="1">
          <mxGeometry x="160" y="100" width="200" height="40" as="geometry" />
        </mxCell>
        <mxCell id="7XEHqxripD5ANdKgzwC3-2" value="Categorias" style="swimlane;whiteSpace=wrap;html=1;" vertex="1" parent="1">
          <mxGeometry x="670" y="110" width="200" height="110" as="geometry" />
        </mxCell>
        <mxCell id="7XEHqxripD5ANdKgzwC3-3" value="id" style="text;html=1;align=center;verticalAlign=middle;resizable=0;points=[];autosize=1;strokeColor=none;fillColor=none;" vertex="1" parent="7XEHqxripD5ANdKgzwC3-2">
          <mxGeometry x="10" y="28" width="30" height="30" as="geometry" />
        </mxCell>
        <mxCell id="7XEHqxripD5ANdKgzwC3-5" value="&lt;div&gt;&lt;span style=&quot;background-color: initial;&quot;&gt;description&lt;/span&gt;&lt;br&gt;&lt;/div&gt;" style="text;html=1;align=center;verticalAlign=middle;resizable=0;points=[];autosize=1;strokeColor=none;fillColor=none;" vertex="1" parent="7XEHqxripD5ANdKgzwC3-2">
          <mxGeometry x="10" y="70" width="80" height="30" as="geometry" />
        </mxCell>
        <mxCell id="7XEHqxripD5ANdKgzwC3-4" value="name" style="text;html=1;align=center;verticalAlign=middle;resizable=0;points=[];autosize=1;strokeColor=none;fillColor=none;" vertex="1" parent="7XEHqxripD5ANdKgzwC3-2">
          <mxGeometry x="10" y="50" width="50" height="30" as="geometry" />
        </mxCell>
      </root>
    </mxGraphModel>
  </diagram>
</mxfile>
